HIERARCHY
ROOT Hips
{
	OFFSET 0.00000 0.00000 0.00000
	CHANNELS 6 Xposition Yposition Zposition Zrotation Yrotation Xrotation 
	JOINT LHipJoint
	{
		OFFSET 0 0 0
		CHANNELS 3 Zrotation Yrotation Xrotation
		JOINT LeftUpLeg
		{
			OFFSET 1.34019 -1.87553 0.90315
			CHANNELS 3 Zrotation Yrotation Xrotation
			JOINT LeftLeg
			{
				OFFSET 2.55316 -7.01474 0.00000
				CHANNELS 3 Zrotation Yrotation Xrotation
				JOINT LeftFoot
				{
					OFFSET 2.64657 -7.27139 0.00000
					CHANNELS 3 Zrotation Yrotation Xrotation
					JOINT LeftToeBase
					{
						OFFSET 0.24207 -0.66507 2.14489
						CHANNELS 3 Zrotation Yrotation Xrotation
						End Site
						{
							OFFSET 0.00000 -0.00000 1.12451
						}
					}
				}
			}
		}
	}
	JOINT RHipJoint
	{
		OFFSET 0 0 0
		CHANNELS 3 Zrotation Yrotation Xrotation
		JOINT RightUpLeg
		{
			OFFSET -1.28320 -1.87553 0.90315
			CHANNELS 3 Zrotation Yrotation Xrotation
			JOINT RightLeg
			{
				OFFSET -2.60484 -7.15674 0.00000
				CHANNELS 3 Zrotation Yrotation Xrotation
				JOINT RightFoot
				{
					OFFSET -2.60296 -7.15159 0.00000
					CHANNELS 3 Zrotation Yrotation Xrotation
					JOINT RightToeBase
					{
						OFFSET -0.31082 -0.85398 2.28998
						CHANNELS 3 Zrotation Yrotation Xrotation
						End Site
						{
							OFFSET -0.00000 -0.00000 1.21611
						}
					}
				}
			}
		}
	}
	JOINT LowerBack
	{
		OFFSET 0 0 0
		CHANNELS 3 Zrotation Yrotation Xrotation
		JOINT Spine
		{
			OFFSET -0.00160 2.05581 -0.15156
			CHANNELS 3 Zrotation Yrotation Xrotation
			JOINT Spine1
			{
				OFFSET 0.04594 2.06326 -0.01617
				CHANNELS 3 Zrotation Yrotation Xrotation
				JOINT Neck
				{
					OFFSET 0 0 0
					CHANNELS 3 Zrotation Yrotation Xrotation
					JOINT Neck1
					{
						OFFSET 0.03753 1.73883 0.26751
						CHANNELS 3 Zrotation Yrotation Xrotation
						JOINT Head
						{
							OFFSET -0.09795 1.76129 -0.31794
							CHANNELS 3 Zrotation Yrotation Xrotation
							End Site
							{
								OFFSET -0.03611 1.79987 -0.13846
							}
						}
					}
				}
				JOINT LeftShoulder
				{
					OFFSET 0 0 0
					CHANNELS 3 Zrotation Yrotation Xrotation
					JOINT LeftArm
					{
						OFFSET 3.30667 1.29205 -0.22445
						CHANNELS 3 Zrotation Yrotation Xrotation
						JOINT LeftForeArm
						{
							OFFSET 4.92785 -0.00000 -0.00000
							CHANNELS 3 Zrotation Yrotation Xrotation
							JOINT LeftHand
							{
								OFFSET 3.44052 -0.00000 0.00000
								CHANNELS 3 Zrotation Yrotation Xrotation
								JOINT LeftFingerBase
								{
									OFFSET 0 0 0
									CHANNELS 3 Zrotation Yrotation Xrotation
									JOINT LeftHandIndex1
									{
										OFFSET 0.65433 -0.00000 0.00000
										CHANNELS 3 Zrotation Yrotation Xrotation
										End Site
										{
											OFFSET 0.52753 -0.00000 0.00000
										}
									}
								}
								JOINT LThumb
								{
									OFFSET 0 0 0
									CHANNELS 3 Zrotation Yrotation Xrotation
									End Site
									{
										OFFSET 0.53559 -0.00000 0.53559
									}
								}
							}
						}
					}
				}
				JOINT RightShoulder
				{
					OFFSET 0 0 0
					CHANNELS 3 Zrotation Yrotation Xrotation
					JOINT RightArm
					{
						OFFSET -3.20032 1.49783 -0.27688
						CHANNELS 3 Zrotation Yrotation Xrotation
						JOINT RightForeArm
						{
							OFFSET -5.09181 -0.00000 -0.00000
							CHANNELS 3 Zrotation Yrotation Xrotation
							JOINT RightHand
							{
								OFFSET -3.49865 -0.00000 -0.00000
								CHANNELS 3 Zrotation Yrotation Xrotation
								JOINT RightFingerBase
								{
									OFFSET 0 0 0
									CHANNELS 3 Zrotation Yrotation Xrotation
									JOINT RightHandIndex1
									{
										OFFSET -0.66641 -0.00000 0.00000
										CHANNELS 3 Zrotation Yrotation Xrotation
										End Site
										{
											OFFSET -0.53728 -0.00000 0.00000
										}
									}
								}
								JOINT RThumb
								{
									OFFSET 0 0 0
									CHANNELS 3 Zrotation Yrotation Xrotation
									End Site
									{
										OFFSET -0.54548 -0.00000 0.54548
									}
								}
							}
						}
					}
				}
			}
		}
	}
}
MOTION
Frames: 11
Frame Time: .0083333
0.5015 17.8783 -30.6492 0 0 0 0 0 0 -21 0 0 0 0 0 0 0 0 0 0 0 0 0 0 21 0 0 0 0 0 0 0 0 0 0 0 0 0 0 0 0 0 0 0 0 0 0 -16 0 0 21 0 0 11 0 0 0 -8 0 0 0 0 0 0 0 0 0 0 0 0 0 0 0 0 0 0 0 0 8 0 0 0 0 0 0 0 0 0 0 0 0 0 0 0 0 0
0.5015 17.8783 -30.6492 -0.9007 5.4345 3.0196 0.0000 0.0000 0.0000 -17.7072 -5.1168 -7.5441 2.0747 9.0200 25.8580 0.3483 8.5136 -17.3382 0.2481 -3.2050 -8.8499 0.0000 0.0000 0.0000 19.7126 2.0931 -10.8264 -2.8957 -10.5242 30.6915 -0.1141 -14.9152 -22.3417 -0.0324 1.1616 -3.1937 -2.5290 1.0343 3.1127 0.3862 1.2602 -3.6824 1.7177 0.7388 -5.6287 6.8405 -0.2730 -20.1980 -4.0702 -1.5206 21.5933 -2.8020 -0.6237 10.1411 0.0000 -0.0000 0.0000 -86.4413 3.6984 30.7443 12.2627 -20.1975 -2.1922 -0.0000 0.0000 -4.8766 11.8835 -0.6788 -0.1428 -7.1250 0.0000 -0.0000 -11.4372 29.1962 4.4864 0.0000 -0.0000 0.0000 88.1911 -3.0323 12.0380 -11.6073 19.2130 -1.9711 0.0000 0.0000 2.1138 -17.8317 -2.4675 0.7934 7.1250 -0.0000 -0.0000 7.0775 -32.5165 2.1779
0.5030 17.8779 -30.6468 -0.8883 5.4947 3.0093 0.0000 0.0000 0.0000 -17.7152 -5.0652 -7.5497 2.0745 9.0196 25.8567 0.3542 8.4157 -17.3119 0.2546 -3.2466 -8.9659 0.0000 0.0000 0.0000 19.7074 2.0884 -10.7898 -2.8942 -10.5218 30.6835 -0.1082 -14.9760 -22.3642 -0.0320 1.1555 -3.1766 -2.4688 1.0258 3.0542 0.3559 1.2527 -3.6370 1.6545 0.7305 -5.5447 6.8383 -0.2869 -20.3416 -4.0849 -1.5453 21.7721 -2.8168 -0.6343 10.2304 0.0000 0.0000 0.0000 -86.4132 3.5932 30.8245 12.6128 -20.7173 -2.3145 -0.0000 0.0000 -6.6065 10.8741 2.9422 0.5649 -7.1250 0.0000 -0.0000 -12.7030 32.7852 3.8835 0.0000 0.0000 0.0000 88.2490 -2.9969 12.1528 -11.6468 19.2728 -1.9842 0.0000 0.0000 2.0769 -17.8465 -2.5534 0.8218 7.1250 -0.0000 -0.0000 7.0737 -32.6064 2.1613
0.5053 17.8775 -30.6447 -0.8531 5.5381 3.0113 0.0000 0.0000 0.0000 -17.7587 -5.0747 -7.5441 2.0743 9.0191 25.8550 0.3556 8.3919 -17.3050 0.2529 -3.2359 -8.9361 0.0000 0.0000 0.0000 19.6672 2.0680 -10.7789 -2.8938 -10.5212 30.6815 -0.1086 -15.0108 -22.4139 -0.0323 1.1601 -3.1893 -2.4380 1.0149 3.0578 0.3259 1.2383 -3.6412 1.6071 0.7215 -5.5490 6.7903 -0.2925 -20.4444 -4.0560 -1.5514 22.0052 -2.8065 -0.6334 10.3342 0.0000 -0.0000 0.0000 -86.4002 3.5408 30.6225 12.5643 -20.6454 -2.2974 -0.0000 0.0000 -6.4075 10.8814 3.4248 0.6579 -7.1250 0.0000 -0.0000 -12.7717 33.2646 3.7537 0.0000 -0.0000 0.0000 88.3076 -2.9850 12.1336 -11.6249 19.2397 -1.9769 0.0000 0.0000 2.2697 -17.9415 -2.5196 0.8155 7.1250 -0.0000 -0.0000 6.9942 -32.5738 2.1422
0.5038 17.8803 -30.6468 -0.8818 5.6238 3.1147 0.0000 0.0000 0.0000 -17.6836 -5.0519 -7.7045 2.0738 9.0181 25.8521 0.3622 8.2461 -17.2397 0.2539 -3.2422 -8.9537 0.0000 0.0000 0.0000 19.7224 2.1658 -10.8487 -2.8930 -10.5198 30.6770 -0.1071 -15.0889 -22.5029 -0.0295 1.1081 -3.0464 -2.3617 0.9956 2.9696 0.3024 1.2177 -3.6581 1.5429 0.7075 -5.5126 6.7585 -0.3010 -20.4978 -4.0325 -1.5624 22.1204 -2.7979 -0.6361 10.3859 -0.0000 -0.0000 0.0000 -86.3741 3.4429 30.3872 12.4075 -20.4130 -2.2424 -0.0000 0.0000 -5.8093 11.1728 2.6036 0.5140 -7.1250 0.0000 -0.0000 -12.4151 32.4585 3.8920 -0.0000 -0.0000 0.0000 88.4018 -2.9247 12.2372 -11.6370 19.2580 -1.9809 0.0000 0.0000 2.1301 -18.0167 -2.6976 0.8770 7.1250 -0.0000 -0.0000 6.9503 -32.7616 2.0969
0.5061 17.8807 -30.6447 -0.8852 5.6392 3.1185 0.0000 0.0000 0.0000 -17.6856 -5.0540 -7.6998 2.0728 9.0161 25.8458 0.3632 8.2325 -17.2387 0.2532 -3.2375 -8.9408 0.0000 0.0000 0.0000 19.7252 2.2033 -10.8192 -2.8919 -10.5180 30.6710 -0.1095 -15.1132 -22.5585 -0.0282 1.0844 -2.9810 -2.2545 1.0380 2.9353 0.2218 1.2772 -3.6848 1.3948 0.7311 -5.5190 6.6648 -0.4204 -20.3860 -3.8921 -1.7274 22.2083 -2.7558 -0.7002 10.3892 -0.0000 -0.0000 0.0000 -86.2581 3.4397 30.3370 12.3483 -20.3249 -2.2218 -0.0000 0.0000 -5.6583 11.1739 2.6055 0.5145 -7.1250 0.0000 -0.0000 -12.4145 32.4604 3.8912 -0.0000 -0.0000 0.0000 88.5733 -3.0032 12.1869 -11.6623 19.2963 -1.9893 0.0000 0.0000 2.1008 -18.0437 -2.8054 0.9134 7.1250 -0.0000 -0.0000 6.9388 -32.8749 2.0742
0.5091 17.8809 -30.6420 -0.8891 5.6309 3.1125 0.0000 0.0000 0.0000 -17.6941 -5.0534 -7.6773 2.0718 9.0140 25.8392 0.3637 8.2392 -17.2516 0.2516 -3.2275 -8.9127 0.0000 0.0000 0.0000 19.7236 2.2444 -10.7787 -2.8907 -10.5160 30.6644 -0.1120 -15.1269 -22.6008 -0.0273 1.0667 -2.9324 -2.1513 1.0761 2.9057 0.1584 1.3313 -3.7000 1.2673 0.7524 -5.5158 6.5875 -0.5089 -20.3021 -3.7989 -1.8443 22.2765 -2.7265 -0.7472 10.3930 -0.0000 0.0000 0.0000 -86.1832 3.4160 30.2024 12.2565 -20.1882 -2.1900 -0.0000 0.0000 -5.3931 11.2249 2.3121 0.4587 -7.1250 0.0000 -0.0000 -12.3316 32.1701 3.9525 -0.0000 0.0000 0.0000 88.7071 -3.0655 12.1978 -11.6874 19.3342 -1.9976 0.0000 0.0000 2.0379 -18.0383 -2.9022 0.9446 7.1250 -0.0000 -0.0000 6.9523 -32.9757 2.0613
0.5123 17.8809 -30.6391 -0.8901 5.6104 3.1063 0.0000 0.0000 0.0000 -17.7073 -5.0418 -7.6534 2.0704 9.0111 25.8301 0.3645 8.2460 -17.2683 0.2504 -3.2198 -8.8913 0.0000 0.0000 0.0000 19.7168 2.2861 -10.7382 -2.8892 -10.5135 30.6561 -0.1136 -15.1365 -22.6295 -0.0267 1.0541 -2.8977 -2.0549 1.1130 2.8735 0.1033 1.3840 -3.7129 1.1525 0.7734 -5.5089 6.5173 -0.5854 -20.2181 -3.7303 -1.9407 22.3175 -2.7035 -0.7879 10.3880 -0.0000 -0.0000 0.0000 -86.1313 3.3864 30.0357 12.1673 -20.0551 -2.1593 -0.0000 0.0000 -5.1762 11.2848 2.0362 0.4062 -7.1250 0.0000 -0.0000 -12.2451 31.8969 4.0061 -0.0000 -0.0000 0.0000 88.8182 -3.1308 12.2536 -11.7165 19.3782 -2.0072 0.0000 0.0000 1.9360 -18.0068 -2.9803 0.9682 7.1250 -0.0000 -0.0000 6.9853 -33.0562 2.0575
0.5159 17.8807 -30.6358 -0.8851 5.5728 3.0958 0.0000 0.0000 0.0000 -17.7324 -5.0253 -7.6206 2.0689 9.0082 25.8208 0.3649 8.2656 -17.2927 0.2492 -3.2124 -8.8706 0.0000 0.0000 0.0000 19.6988 2.3244 -10.6973 -2.8880 -10.5116 30.6498 -0.1149 -15.1378 -22.6433 -0.0264 1.0495 -2.8851 -1.9741 1.1365 2.8406 0.0723 1.4192 -3.7061 1.0731 0.7866 -5.4810 6.4783 -0.6132 -20.1972 -3.7341 -1.9645 22.3460 -2.7021 -0.8020 10.3932 -0.0000 -0.0000 0.0000 -86.1361 3.3221 29.7856 12.0833 -19.9295 -2.1306 -0.0000 0.0000 -5.0026 11.3622 1.8581 0.3733 -7.1250 0.0000 -0.0000 -12.1592 31.7216 4.0293 -0.0000 -0.0000 0.0000 88.8726 -3.1600 12.3942 -11.7438 19.4194 -2.0163 0.0000 0.0000 1.8094 -17.9465 -3.0088 0.9740 7.1250 -0.0000 -0.0000 7.0368 -33.0840 2.0681
0.5187 17.8809 -30.6339 -0.8729 5.5493 3.1151 0.0000 0.0000 0.0000 -17.7518 -4.9890 -7.6390 2.0675 9.0052 25.8117 0.3672 8.2424 -17.2966 0.2489 -3.2103 -8.8648 0.0000 0.0000 0.0000 19.6771 2.3666 -10.6960 -2.8877 -10.5110 30.6477 -0.1126 -15.1553 -22.6451 -0.0266 1.0533 -2.8954 -1.9285 1.1313 2.7976 0.0744 1.4159 -3.6866 1.0512 0.7826 -5.4346 6.4726 -0.5718 -20.2768 -3.8145 -1.8890 22.3748 -2.7213 -0.7776 10.4218 -0.0000 -0.0000 0.0000 -86.2112 3.2095 29.4284 12.0055 -19.8129 -2.1042 -0.0000 0.0000 -4.8613 11.4643 1.8493 0.3750 -7.1250 0.0000 -0.0000 -12.0776 31.7157 4.0029 -0.0000 -0.0000 0.0000 88.8573 -3.1338 12.6329 -11.7660 19.4528 -2.0237 0.0000 0.0000 1.6570 -17.8621 -2.9817 0.9604 7.1250 -0.0000 -0.0000 7.1023 -33.0532 2.0930
0.5215 17.8810 -30.6322 -0.8588 5.5258 3.1336 0.0000 0.0000 0.0000 -17.7749 -4.9560 -7.6559 2.0659 9.0020 25.8017 0.3686 8.2265 -17.2981 0.2489 -3.2104 -8.8650 0.0000 0.0000 0.0000 19.6521 2.4063 -10.6987 -2.8881 -10.5117 30.6502 -0.1111 -15.1681 -22.6468 -0.0267 1.0545 -2.8988 -1.8956 1.1063 2.7542 0.1009 1.3867 -3.6467 1.0638 0.7666 -5.3666 6.4975 -0.4807 -20.4335 -3.9626 -1.7412 22.4219 -2.7614 -0.7258 10.4749 0.0000 0.0000 0.0000 -86.3395 3.0595 28.9808 11.9237 -19.6901 -2.0765 -0.0000 0.0000 -4.7026 11.6105 1.8754 0.3853 -7.1250 0.0000 -0.0000 -11.9658 31.7456 3.9556 0.0000 0.0000 0.0000 88.7894 -3.0616 12.9510 -11.7855 19.4822 -2.0302 0.0000 0.0000 1.4874 -17.7715 -2.9440 0.9431 7.1250 -0.0000 -0.0000 7.1718 -33.0111 2.1211
